HIERARCHY
ROOT root
{
	OFFSET	0	13.1	24.9
	CHANNELS 6  Xposition Yposition Zposition Xrotation Yrotation Zrotation
	JOINT spine_1
	{
		OFFSET	0	9.99999	0
		CHANNELS 3  Xrotation Yrotation Zrotation
		JOINT spine_2
		{
			OFFSET	0	112	-10
			CHANNELS 3  Xrotation Yrotation Zrotation
			JOINT spine_3
			{
				OFFSET	0	206.5	19.3
				CHANNELS 3  Xrotation Yrotation Zrotation
				JOINT spine_4
				{
					OFFSET	0	110.4	14.6
					CHANNELS 3  Xrotation Yrotation Zrotation
					JOINT neck_1
					{
						OFFSET	0	71.8	-50.3
						CHANNELS 3  Xrotation Yrotation Zrotation
						JOINT neck_2
						{
							OFFSET	0	86.2	-25.8
							CHANNELS 3  Xrotation Yrotation Zrotation
							JOINT head_ee
							{
								OFFSET	0	179.8	-8.7
								CHANNELS 3  Xrotation Yrotation Zrotation
								End Site
								{
									OFFSET	1	0	0
								}
							}
						}
					}
					JOINT left_clavicle
					{
						OFFSET	-43.2	22.4	-70.8
						CHANNELS 3  Xrotation Yrotation Zrotation
						JOINT left_shoulder
						{
							OFFSET	-93.9	-5.79999	48.7
							CHANNELS 3  Xrotation Yrotation Zrotation
							JOINT left_elbow
							{
								OFFSET	-291.4	-30.8	15.2
								CHANNELS 3  Xrotation Yrotation Zrotation
								JOINT left_lowarm_twist
								{
									OFFSET	-110.7	-3.89999	13.6
									CHANNELS 3  Xrotation Yrotation Zrotation
									JOINT left_hand
									{
										OFFSET	-110.7	-3.89999	13.6
										CHANNELS 3  Xrotation Yrotation Zrotation
										JOINT left_ee
										{
											OFFSET	-80.8	-5.10001	12.1
											CHANNELS 3  Xrotation Yrotation Zrotation
											End Site
											{
												OFFSET	1	0	0
											}
										}
									}
								}
							}
						}
					}
					JOINT right_clavicle
					{
						OFFSET	43.2	22.4	-70.8
						CHANNELS 3  Xrotation Yrotation Zrotation
						JOINT right_shoulder
						{
							OFFSET	93.9	-5.79999	48.7
							CHANNELS 3  Xrotation Yrotation Zrotation
							JOINT right_elbow
							{
								OFFSET	291.4	-30.8	15.2
								CHANNELS 3  Xrotation Yrotation Zrotation
								JOINT right_lowarm_twist
								{
									OFFSET	110.7	-3.89999	13.6
									CHANNELS 3  Xrotation Yrotation Zrotation
									JOINT right_hand
									{
										OFFSET	110.7	-3.89999	13.6
										CHANNELS 3  Xrotation Yrotation Zrotation
										JOINT right_ee
										{
											OFFSET	80.8	-5.10001	12.1
											CHANNELS 3  Xrotation Yrotation Zrotation
											End Site
											{
												OFFSET	1	0	0
											}
										}
									}
								}
							}
						}
					}
				}
			}
		}
	}
	JOINT left_hip
	{
		OFFSET	-82.8	-127.5	0.300001
		CHANNELS 3  Xrotation Yrotation Zrotation
		JOINT left_knee
		{
			OFFSET	-28.2	-396.7	2.2
			CHANNELS 3  Xrotation Yrotation Zrotation
			JOINT left_ankle
			{
				OFFSET	-11.7	-411.3	35.4
				CHANNELS 3  Xrotation Yrotation Zrotation
				JOINT left_toes
				{
					OFFSET	0	-60	-88.6
					CHANNELS 3  Xrotation Yrotation Zrotation
					JOINT left_foot_ee
					{
						OFFSET	-22.5	-16.5	-42.2
						CHANNELS 3  Xrotation Yrotation Zrotation
						End Site
						{
							OFFSET	1	0	0
						}
					}
				}
			}
		}
	}
	JOINT right_hip
	{
		OFFSET	82.8	-127.5	0.300001
		CHANNELS 3  Xrotation Yrotation Zrotation
		JOINT right_knee
		{
			OFFSET	28.2	-396.7	2.2
			CHANNELS 3  Xrotation Yrotation Zrotation
			JOINT right_ankle
			{
				OFFSET	11.7	-411.3	35.4
				CHANNELS 3  Xrotation Yrotation Zrotation
				JOINT right_toes
				{
					OFFSET	0	-60	-88.6
					CHANNELS 3  Xrotation Yrotation Zrotation
					JOINT right_foot_ee
					{
						OFFSET	22.5	-16.5	-42.2
						CHANNELS 3  Xrotation Yrotation Zrotation
						End Site
						{
							OFFSET	1	0	0
						}
					}
				}
			}
		}
	}
}
MOTION
Frames: 7
Frame Time: 0.02
875.068 684.548 -528.05 177.962 -78.4394 178.683 -1.38648 0.949882 2.56221 -1.38317 0.784975 2.61741 -1.34321 0.153831 2.72818 -1.35312 0.582611 2.66972 -16.295 4.55375 -3.16591 -16.3809 10.5424 -1.35746 -0.0 0.0 -0.0 2.87301 24.2946 6.67703 -16.9429 -2.65146 63.9612 0.673218 -18.4432 0.109299 -75.3608 -7.23095 5.31811 1.29387 20.0323 15.9773 -0.0 0.0 -0.0 13.6519 26.4918 -27.1293 4.14087 24.1826 -57.4095 3.92663 62.7746 -2.39622 20.9858 -0.256032 2.65357 -2.53802 7.23637 20.6418 0.0 0.0 0.0 34.2644 9.2025 -12.5435 -14.0013 0.318859 2.11968 -14.4595 16.8269 2.18826 -30.2089 0.0 0.0 -0.0 0.0 -0.0 -14.9952 20.2555 0.524238 -18.2733 -0.312192 -2.77495 42.8424 -22.2856 5.34513 -4.92037 0.0 0.0 0.0 0.0 0.0 
896.384 681.598 -531.832 178.579 -79.2296 179.087 -1.41468 0.776084 2.45942 -1.41152 0.618063 2.50378 -1.38088 0.0161034 2.57884 -1.38991 0.423048 2.54398 -14.8417 5.40421 -3.3691 -14.9401 12.3381 -1.39813 -0.0 0.0 -0.0 3.00226 23.6278 6.83876 -16.2247 -3.29648 64.2558 0.638909 -17.5625 0.0986953 -75.7434 -7.27982 5.31678 1.18907 20.0999 15.348 -0.0 0.0 -0.0 13.7885 26.1737 -27.4871 3.30058 23.8237 -57.6165 3.84052 62.2552 -2.31983 21.3019 -0.252415 2.69378 -2.60767 7.14448 21.1023 0.0 0.0 0.0 34.5094 8.14428 -11.954 -17.6439 0.316243 2.67846 -12.8524 15.0507 1.93443 -27.8105 0.0 0.0 -0.0 0.0 -0.0 -16.5896 20.7863 1.1002 -18.82 -0.307813 -2.85872 42.2778 -22.9802 5.3158 -5.56571 0.0 0.0 0.0 0.0 0.0 
922.938 677.111 -542.31 179.568 -80.3838 -179.511 -1.38291 0.731705 2.22718 -1.38034 0.588538 2.2692 -1.35404 0.0432775 2.34384 -1.36147 0.412801 2.30763 -14.2784 5.07341 -1.92466 -14.3607 10.85 -0.197572 -0.0 0.0 -0.0 3.23339 24.0076 7.16227 -15.5088 -3.46619 64.1982 0.696375 -19.0326 0.116739 -74.9463 -7.17801 5.31919 1.90159 20.4142 19.9181 -0.0 0.0 -0.0 13.6423 25.9746 -27.1705 2.45169 21.8742 -57.3314 3.67031 61.1731 -2.16993 22.1324 -0.241853 2.79934 -1.90338 10.7405 17.6769 0.0 0.0 0.0 35.6553 7.28158 -11.5933 -23.4535 0.238671 3.56614 -7.73302 11.5778 1.15057 -24.7473 0.0 0.0 -0.0 0.0 -0.0 -19.0937 21.3825 1.95417 -16.69 -0.320362 -2.53217 39.6931 -22.8562 5.07343 -7.72702 0.0 0.0 0.0 0.0 0.0 
944.931 672.406 -549.54 179.341 -81.5587 -179.521 -1.3472 0.535657 1.83209 -1.34543 0.418011 1.86245 -1.3299 -0.0270036 1.90858 -1.33488 0.274705 1.8889 -11.5521 5.85413 -0.35886 -11.6134 11.3171 1.26553 -0.0 0.0 -0.0 3.50717 23.4999 7.53379 -14.9587 -3.8112 64.2113 0.719351 -19.6133 0.124341 -73.7714 -7.02788 5.32015 2.04808 16.7698 19.7825 -0.0 0.0 -0.0 13.6052 25.5256 -27.1374 1.5009 20.8526 -57.0357 3.38776 59.1962 -1.92474 18.9103 -0.27427 2.38911 -2.36359 8.78365 20.09 0.0 0.0 0.0 34.1891 7.13164 -10.9011 -23.5817 0.235944 3.58563 0.0883197 10.7537 -0.012933 -28.4286 0.0 0.0 -0.0 0.0 -0.0 -20.9445 21.0507 3.33406 -16.7379 -0.320213 -2.53952 36.1811 -23.0253 4.73131 -4.88354 0.0 0.0 0.0 0.0 0.0 
978.832 672.472 -553.917 175.421 -81.9669 176.773 -1.41004 0.337725 1.54651 -1.40874 0.238645 1.56486 -1.40092 -0.134185 1.57725 -1.40437 0.116564 1.57865 -9.95571 6.92251 2.36978 -9.98306 11.43 4.03213 -0.0 0.0 -0.0 3.49794 23.0869 7.51803 -15.0582 -6.1595 64.109 0.662321 -18.1644 0.105877 -71.1996 -6.6992 5.31141 2.14475 13.566 19.4137 -0.0 0.0 -0.0 13.1307 24.5394 -26.1441 -1.69659 19.2339 -58.3025 3.58784 60.6205 -2.09788 13.5336 -0.276892 1.70261 -1.35813 9.99793 13.5371 0.0 0.0 0.0 33.4673 6.73109 -10.5583 -29.0283 0.0800556 4.40667 7.10934 14.622 -1.02692 -25.6686 0.0 0.0 -0.0 0.0 -0.0 -22.5089 21.1953 3.08221 -17.9806 -0.314208 -2.73009 33.2659 -27.0064 4.53258 -3.67579 0.0 0.0 0.0 0.0 0.0 
1002.87 668.54 -561.956 175.198 -82.4192 176.615 -1.27174 0.21087 1.30835 -1.2708 0.127196 1.31912 -1.26703 -0.181983 1.31268 -1.26944 0.0275955 1.32495 -7.89872 7.71448 0.907807 -7.91563 13.7541 2.57397 -0.0 0.0 -0.0 3.77172 22.5726 7.90039 -13.9489 -5.49536 64.2509 0.655662 -17.9937 0.10381 -72.3669 -6.84835 5.31722 2.38141 13.9947 21.1438 -0.0 0.0 -0.0 13.2792 24.1253 -26.533 -3.96978 16.9151 -58.1759 3.5753 60.5348 -2.08695 13.5889 -0.277193 1.70968 -1.25378 6.05494 11.0939 0.0 0.0 0.0 33.0561 6.56511 -10.329 -32.2993 -0.0508467 4.89149 11.688 10.1116 -1.65278 -26.29 0.0 0.0 -0.0 0.0 -0.0 -23.7572 22.1291 3.51879 -19.1416 -0.304865 -2.90798 31.1034 -26.5834 4.27568 -2.07585 0.0 0.0 0.0 0.0 0.0 
1022.67 670.701 -568.472 168.784 -82.4537 170.377 -1.21814 0.0849794 1.15666 -1.2174 0.0112111 1.15972 -1.21661 -0.256889 1.13097 -1.21838 -0.0750617 1.15734 -6.37025 8.83373 3.38229 -6.33591 13.8972 5.10261 -0.0 0.0 -0.0 3.95479 21.7898 8.16192 -12.1702 -6.40865 64.4264 0.610934 -16.838 0.0904227 -70.2178 -6.57382 5.30416 2.53524 15.3648 22.6072 -0.0 0.0 -0.0 12.8825 23.1314 -25.7109 -6.13408 14.9847 -59.4053 3.53742 60.273 -2.05402 13.3252 -0.275697 1.67603 -0.838151 4.79238 7.70046 0.0 0.0 0.0 30.7376 7.16222 -9.92388 -33.7684 -0.118623 5.10672 16.955 8.97689 -2.34725 -24.2055 0.0 0.0 -0.0 0.0 -0.0 -21.1558 22.5533 3.11231 -28.5362 -0.0973437 -4.33312 25.4144 -27.5648 3.61652 -2.43553 0.0 0.0 0.0 0.0 0.0 
